<svg width="16" height="16" viewBox="0 0 17 17" fill="rgba(19, 19, 19, 0.08)" xmlns="http://www.w3.org/2000/svg"><path d="M14.1667 4.95833H2.83335C2.05095 4.95833 1.41669 5.59259 1.41669 6.37499V13.4583C1.41669 14.2407 2.05095 14.875 2.83335 14.875H14.1667C14.9491 14.875 15.5834 14.2407 15.5834 13.4583V6.37499C15.5834 5.59259 14.9491 4.95833 14.1667 4.95833Z" stroke="rgba(19, 19, 19, 0.38)" stroke-width="1.5" stroke-linecap="round" stroke-linejoin="round"></path><path d="M11.3334 14.875V3.54167C11.3334 3.16594 11.1841 2.80561 10.9184 2.53993C10.6527 2.27426 10.2924 2.125 9.91669 2.125H7.08335C6.70763 2.125 6.3473 2.27426 6.08162 2.53993C5.81594 2.80561 5.66669 3.16594 5.66669 3.54167V14.875" stroke="rgba(19, 19, 19, 0.38)" stroke-width="1.5" stroke-linecap="round" stroke-linejoin="round"></path></svg>