<svg fill="none" width="19" height="19" viewBox="0 0 19 19" xmlns="http://www.w3.org/2000/svg"><path d="M16.625 9.10416C16.6277 10.1491 16.3836 11.1798 15.9125 12.1125C15.3539 13.2301 14.4952 14.1702 13.4326 14.8273C12.3699 15.4845 11.1453 15.8328 9.89583 15.8333C8.85094 15.8361 7.82017 15.5919 6.8875 15.1208L2.375 16.625L3.87917 12.1125C3.40807 11.1798 3.16394 10.1491 3.16667 9.10416C3.16715 7.85472 3.51548 6.63008 4.17265 5.56743C4.82982 4.50477 5.76987 3.64607 6.8875 3.08749C7.82017 2.6164 8.85094 2.37227 9.89583 2.37499H10.2917C11.9418 2.46603 13.5003 3.16251 14.6689 4.33109C15.8375 5.49967 16.534 7.05822 16.625 8.70833V9.10416Z" stroke="rgba(19, 19, 19, 0.38)" fill="rgba(19, 19, 19, 0.08)" stroke-width="1.5" stroke-linecap="round" stroke-linejoin="round"></path></svg>