<svg width="32" height="32" viewBox="0 0 32 32" fill="none" xmlns="http://www.w3.org/2000/svg">
	<path d="M29.1248 21.7527V19.4812C28.8224 19.6734 28.4988 19.83 28.1604 19.9479C27.1068 20.3292 25.7256 20.5391 24.2511 20.5391C22.7766 20.5391 21.3908 20.3292 20.3371 19.9479C19.9994 19.83 19.6765 19.6734 19.3748 19.4812V21.8287C19.3748 22.3497 21.0351 23.3215 24.2498 23.3215C27.4645 23.3215 29.1248 22.3497 29.1248 21.8287V21.7527ZM24.2444 16.0069C27.4591 16.0069 29.1406 15.0351 29.1406 14.5141C29.1406 13.9932 27.4594 13.0213 24.2444 13.0213C21.0294 13.0213 19.3481 13.9931 19.3481 14.5141C19.3481 15.0351 21.0298 16.0069 24.2444 16.0069Z" fill="#3AD740"/>
	<path d="M24.2514 24.1967C22.7768 24.1967 21.3912 23.9867 20.3374 23.6055C19.9997 23.4876 19.6767 23.331 19.3749 23.1388V25.5117C19.3749 26.0327 21.0412 27.0045 24.2562 27.0045C25.0616 27.0079 25.8655 26.9354 26.6572 26.788C27.4484 26.6362 28.1057 26.413 28.5627 26.1442C28.9252 25.9307 29.1252 25.7005 29.1252 25.5119V23.1388C28.8228 23.331 28.4992 23.4876 28.1608 23.6055C27.1071 23.9867 25.726 24.1967 24.2514 24.1967ZM29.1252 15.8236C28.8227 16.0158 28.499 16.1725 28.1606 16.2904C27.1066 16.6717 25.7256 16.8819 24.2514 16.8819C22.7773 16.8819 21.3917 16.6719 20.3377 16.2904C19.9999 16.1725 19.6769 16.0158 19.3752 15.8236V18.1715C19.3752 18.6925 21.0355 19.6643 24.2502 19.6643C27.4649 19.6643 29.1252 18.6925 29.1252 18.1715V15.8236ZM4.97681 9.22174C6.48187 9.76642 8.49188 10.0664 10.6367 10.0664C12.7815 10.0664 14.7915 9.76636 16.2966 9.22174C17.6224 8.74192 18.414 8.1098 18.414 7.53092C18.414 6.95205 17.6224 6.31992 16.2966 5.84005C14.7915 5.29536 12.7814 4.99536 10.6367 4.99536C8.49194 4.99536 6.48187 5.29536 4.97681 5.84005C3.65094 6.31992 2.85938 6.95199 2.85938 7.53092C2.85938 8.10986 3.65094 8.74192 4.97681 9.22174ZM18.4377 18.6796V14.7132C17.8778 15.1217 17.2616 15.4466 16.6084 15.6779C15.0107 16.256 12.885 16.5744 10.6406 16.5744C8.39625 16.5744 6.28437 16.256 4.68669 15.6779C3.92519 15.4024 3.31269 15.0762 2.87519 14.7132V18.7969C2.87519 19.3762 3.66169 20.0084 4.98769 20.4881C6.49225 21.0325 8.4975 21.3324 10.6429 21.3324C12.7882 21.3324 14.8044 21.0324 16.3091 20.4881C17.6344 20.0084 18.4377 19.3762 18.4377 18.7969V18.6796Z" fill="#3AD740"/>
	<path d="M18.4375 9.07968C17.8776 9.48816 17.2613 9.81316 16.6079 10.0445C15.0098 10.6229 12.8841 10.9414 10.6404 10.9414C8.39675 10.9414 6.28494 10.6226 4.68675 10.0445C3.92544 9.76874 3.3125 9.44274 2.875 9.07968V13.1639C2.875 13.7432 3.6615 14.3754 4.9875 14.8551C6.49206 15.3996 8.49731 15.6994 10.6427 15.6994C12.7881 15.6994 14.8042 15.3994 16.3089 14.8551C17.6345 14.3754 18.4378 13.7432 18.4378 13.1639L18.4375 9.07968ZM10.6404 22.2074C8.39612 22.2074 6.28419 21.889 4.6865 21.3109C3.925 21.0354 3.3125 20.7092 2.875 20.3462V24.4691C2.875 25.0484 3.6615 25.6806 4.9875 26.1602C6.49206 26.7046 8.49725 27.0044 10.6427 27.0044C11.9073 27.0096 13.1697 26.8967 14.4133 26.6669C16.7745 26.2139 18.4375 25.3098 18.4375 24.4687V20.3462C17.8776 20.7547 17.2614 21.0796 16.6082 21.3109C15.0106 21.889 12.8848 22.2074 10.6404 22.2074Z" fill="#009A06"/>
</svg>
