<svg width="24" height="24" viewBox="0 0 24 24" fill="none" xmlns="http://www.w3.org/2000/svg">
	<g clip-path="url(#clip0_1366_5094)">
		<path d="M15.1218 20.3063H8.87803C8.12334 20.3063 7.50928 20.9203 7.50928 21.675V23.1563C7.50928 23.625 7.89365 24.0047 8.35772 24.0047H15.6327C16.1015 24.0047 16.4812 23.625 16.4812 23.1563V21.675C16.4858 20.9156 15.8718 20.3063 15.1218 20.3063ZM11.3108 13.4016C11.3108 13.7813 11.6202 14.0906 11.9999 14.0906C12.3796 14.0906 12.689 13.7813 12.689 13.4016C12.689 13.0266 12.3843 12.7078 11.9952 12.7078C11.6155 12.7125 11.3108 13.0219 11.3108 13.4016Z" fill="#7A0AEA"/>
		<path d="M12.328 5.99063C12.3046 5.95782 12.253 5.97188 12.253 6.01407V12.2391C12.7874 12.3563 13.1952 12.8297 13.1952 13.4063C13.1952 14.0625 12.6608 14.5922 12.0046 14.5922C11.3952 14.5922 10.9171 14.1469 10.828 13.5984C10.7249 12.9422 11.1562 12.3656 11.7515 12.2391V6.01407C11.7515 5.97188 11.6952 5.95782 11.6765 5.99063L6.36553 14.2031C5.98116 14.7984 6.12647 15.6047 6.69366 16.0359C8.08584 17.0859 8.93897 18.3234 9.29053 19.8047H14.7093C15.0608 18.3234 15.914 17.0859 17.3062 16.0359C17.878 15.6047 18.0233 14.7984 17.6343 14.2031L12.328 5.99063Z" fill="#7A0AEA"/>
		<path d="M22.3219 10.4578C21.6563 6.56719 18.8438 3.40313 15.15 2.23594C17.0156 2.24063 18.8484 2.24531 20.4703 2.24531C20.6016 3.09844 21.3375 3.75 22.2234 3.75C23.2031 3.75 24 2.95312 24 1.97344C24 0.99375 23.2031 0.196875 22.2234 0.196875C21.3234 0.196875 20.5781 0.871875 20.4656 1.74375C18.9281 1.73906 16.5516 1.73438 14.0016 1.72969V1.02187C14.0016 0.459375 13.5469 0 12.9844 0H11.0156C10.4531 0 9.99375 0.459375 9.99375 1.02187V1.72969C6.71719 1.725 4.73437 1.725 3.525 1.72969C3.40781 0.867188 2.66719 0.201563 1.77656 0.201563C0.796875 0.201563 0 0.998437 0 1.97344C0 2.95312 0.796875 3.75 1.77656 3.75C2.66719 3.75 3.40781 3.08906 3.52969 2.23125C4.81406 2.22656 6.7125 2.22656 8.87344 2.22656C5.17031 3.38906 2.34375 6.55781 1.67812 10.4578C0.740625 10.5094 0 11.2828 0 12.2297C0 13.2094 0.796875 14.0062 1.77656 14.0062C2.75625 14.0062 3.55313 13.2094 3.55313 12.2297C3.55313 11.3906 2.96719 10.6875 2.17969 10.5047C2.8875 6.47813 6.00938 3.27188 9.99844 2.45625V2.98594C9.99844 3.54844 10.4578 4.00781 11.0203 4.00781H12.9844C13.5469 4.00781 14.0062 3.54844 14.0062 2.98594V2.45156C17.9953 3.26719 21.1219 6.47344 21.825 10.5C21.0422 10.6828 20.4516 11.3859 20.4516 12.225C20.4516 13.2047 21.2484 14.0016 22.2281 14.0016C23.2078 14.0016 24.0047 13.2047 24.0047 12.225C24 11.2828 23.2594 10.5094 22.3219 10.4578Z" fill="#B265FF"/>
	</g>
	<defs>
		<clipPath id="clip0_1366_5094">
			<rect width="24" height="24" fill="white"/>
		</clipPath>
	</defs>
</svg>
