<svg width="32" height="32" viewBox="0 0 32 32" fill="none" xmlns="http://www.w3.org/2000/svg">
	<path d="M2 11.01V17.04C2.00026 17.8365 2.3161 18.6004 2.87836 19.1646C3.44063 19.7287 4.20351 20.0471 5 20.05H10V7.99999H5C4.20351 8.0029 3.44063 8.32127 2.87836 8.88541C2.3161 9.44955 2.00026 10.2135 2 11.01ZM20.68 5.51999C20.2753 5.24481 19.8091 5.0735 19.3225 5.02118C18.8359 4.96885 18.3439 5.03713 17.89 5.21999L12 7.56999V20.53L17.89 22.88C18.2436 23.0188 18.6201 23.09 19 23.09C19.3943 23.0913 19.785 23.0146 20.1496 22.8643C20.5142 22.714 20.8454 22.4931 21.1243 22.2143C21.4031 21.9354 21.624 21.6042 21.7743 21.2396C21.9246 20.875 22.0013 20.4843 22 20.09V7.99999C22 7.51011 21.8796 7.02774 21.6494 6.5953C21.4192 6.16286 21.0863 5.7936 20.68 5.51999ZM4 25.05C4 25.8456 4.31607 26.6087 4.87868 27.1713C5.44129 27.7339 6.20435 28.05 7 28.05C7.79565 28.05 8.55871 27.7339 9.12132 27.1713C9.68393 26.6087 10 25.8456 10 25.05V22H4V25.05ZM29 13.048H26C25.7348 13.048 25.4804 13.1533 25.2929 13.3409C25.1054 13.5284 25 13.7828 25 14.048C25 14.3132 25.1054 14.5676 25.2929 14.7551C25.4804 14.9426 25.7348 15.048 26 15.048H29C29.2652 15.048 29.5196 14.9426 29.7071 14.7551C29.8946 14.5676 30 14.3132 30 14.048C30 13.7828 29.8946 13.5284 29.7071 13.3409C29.5196 13.1533 29.2652 13.048 29 13.048ZM26 8.04799C26.1549 8.048 26.3077 8.01169 26.446 7.94199L28.446 6.94199C28.5645 6.88391 28.6704 6.80295 28.7574 6.70378C28.8445 6.6046 28.9111 6.48917 28.9533 6.36414C28.9956 6.2391 29.0127 6.10695 29.0036 5.97528C28.9945 5.84361 28.9595 5.71505 28.9005 5.59699C28.8415 5.47893 28.7597 5.37372 28.6599 5.28742C28.56 5.20112 28.4441 5.13544 28.3187 5.09416C28.1934 5.05289 28.0611 5.03684 27.9295 5.04693C27.7979 5.05703 27.6696 5.09307 27.552 5.15299L25.552 6.15299C25.3501 6.25359 25.1882 6.41949 25.0925 6.62373C24.9968 6.82797 24.973 7.05856 25.0249 7.27806C25.0768 7.49755 25.2013 7.69306 25.3784 7.83283C25.5554 7.9726 25.7745 8.04842 26 8.04799ZM28.447 21.153L26.447 20.153C26.3294 20.0931 26.2011 20.057 26.0695 20.0469C25.9379 20.0368 25.8056 20.0529 25.6803 20.0942C25.5549 20.1354 25.439 20.2011 25.3391 20.2874C25.2393 20.3737 25.1575 20.4789 25.0985 20.597C25.0395 20.715 25.0045 20.8436 24.9954 20.9753C24.9863 21.1069 25.0034 21.2391 25.0457 21.3641C25.0879 21.4892 25.1545 21.6046 25.2416 21.7038C25.3286 21.803 25.4345 21.8839 25.553 21.942L27.553 22.942C27.6913 23.0117 27.8441 23.048 27.999 23.048C28.2245 23.0484 28.4436 22.9726 28.6206 22.8328C28.7977 22.6931 28.9222 22.4976 28.9741 22.2781C29.026 22.0586 29.0022 21.828 28.9065 21.6237C28.8108 21.4195 28.6489 21.2536 28.447 21.153Z" fill="#FF9314"/>
</svg>
