<svg width="32" height="32" viewBox="0 0 32 32" fill="none" xmlns="http://www.w3.org/2000/svg">
	<path d="M15.915 5.6665C11.3715 3.043 5.561 4.6 2.938 9.1435C0.5775 13.232 1.61 18.3385 5.1495 21.233L3.6675 23.421L3 23.036L1 26.5L5.33 29L7.33 25.536L6.339 24.964L7.7575 22.75C12.0475 24.4055 17.0205 22.751 19.392 18.6435C22.0155 14.1 20.459 8.2895 15.915 5.6665Z" fill="#0B9EA8"/>
	<path d="M11.165 21.3935C15.3072 21.3935 18.665 18.0356 18.665 13.8935C18.665 9.75136 15.3072 6.39349 11.165 6.39349C7.0229 6.39349 3.66504 9.75136 3.66504 13.8935C3.66504 18.0356 7.0229 21.3935 11.165 21.3935Z" fill="#E7F5F6"/>
	<path d="M4.67526 2.905C3.71476 2.604 3.39576 2.285 3.09476 1.3245C3.06576 1.232 2.93376 1.232 2.90476 1.3245C2.60376 2.285 2.28476 2.604 1.32426 2.905C1.23176 2.934 1.23176 3.066 1.32426 3.095C2.28476 3.396 2.60376 3.715 2.90476 4.6755C2.93376 4.768 3.06576 4.768 3.09476 4.6755C3.39576 3.715 3.71476 3.396 4.67526 3.095C4.76776 3.066 4.76776 2.934 4.67526 2.905ZM24.6753 6.405C23.7148 6.104 23.3958 5.785 23.0948 4.8245C23.0658 4.732 22.9338 4.732 22.9048 4.8245C22.6038 5.785 22.2848 6.104 21.3243 6.405C21.2318 6.434 21.2318 6.566 21.3243 6.595C22.2848 6.896 22.6038 7.215 22.9048 8.1755C22.9338 8.268 23.0658 8.268 23.0948 8.1755C23.3958 7.215 23.7148 6.896 24.6753 6.595C24.7678 6.566 24.7678 6.434 24.6753 6.405Z" fill="#40E0EA"/>
	<path d="M25 25H31V31H25V25Z" fill="#15C7D2"/>
	<path d="M27 25H29V27.5H27V25Z" fill="#BEF8FC"/>
	<path d="M19 25H25V31H19V25Z" fill="#26DFEB"/>
	<path d="M21 25H23V27.5H21V25Z" fill="#BEF8FC"/>
	<path d="M22 19H28V25H22V19Z" fill="#7BEEF5"/>
	<path d="M24 19H26V21.5H24V19Z" fill="#BEF8FC"/>
</svg>
