<svg width="32" height="32" viewBox="0 0 32 32" fill="none" xmlns="http://www.w3.org/2000/svg">
	<path d="M2.5 31C3.60457 31 4.5 30.1046 4.5 29C4.5 27.8954 3.60457 27 2.5 27C1.39543 27 0.5 27.8954 0.5 29C0.5 30.1046 1.39543 31 2.5 31Z" fill="#67A4FF"/>
	<path d="M29.5 5C30.6046 5 31.5 4.10457 31.5 3C31.5 1.89543 30.6046 1 29.5 1C28.3954 1 27.5 1.89543 27.5 3C27.5 4.10457 28.3954 5 29.5 5Z" fill="#67A4FF"/>
	<path d="M2.85348 7.35351L4.49998 5.70701L6.14648 7.35351L6.85348 6.64651L5.20698 5.00001L6.85348 3.35351L6.14648 2.64651L4.49998 4.29302L2.85348 2.64651L2.14648 3.35351L3.79298 5.00001L2.14648 6.64651L2.85348 7.35351ZM28.6465 23.793L27 25.4395L25.3535 23.793L24.6465 24.5L26.293 26.1465L24.6465 27.793L25.3535 28.5L27 26.8535L28.6465 28.5L29.3535 27.793L27.707 26.1465L29.3535 24.5L28.6465 23.793ZM5.88198 22.323C6.61339 21.4594 7.57344 20.8194 8.65198 20.4765L8.34798 19.5235C7.09021 19.9233 5.97069 20.6697 5.11798 21.677C4.22149 22.7475 3.65983 24.0581 3.50298 25.4455L4.49698 25.5545C4.6315 24.3648 5.11318 23.2409 5.88198 22.323ZM28.264 7.00001L25.5 9.63801L27.1865 9.97651C27.1004 10.2246 26.9975 10.4664 26.8785 10.7005C26.2884 11.8089 25.3768 12.7128 24.2635 13.2935L24.7365 14.175C26.0284 13.4986 27.0851 12.4468 27.7675 11.158C27.9273 10.8409 28.0615 10.5115 28.169 10.173L29.7965 10.5L28.264 7.00001Z" fill="#67A4FF"/>
	<path d="M16 17.5C17.1046 17.5 18 16.6046 18 15.5C18 14.3954 17.1046 13.5 16 13.5C14.8954 13.5 14 14.3954 14 15.5C14 16.6046 14.8954 17.5 16 17.5Z" fill="#064EBA"/>
	<path d="M19.5 22.646C19.4998 22.2484 19.5881 21.8557 19.7587 21.4965C19.9292 21.1373 20.1777 20.8206 20.486 20.5695C21.2689 19.9391 21.9009 19.1417 22.3359 18.2356C22.7709 17.3295 22.9978 16.3376 23 15.3325C22.9556 13.5638 22.244 11.8773 21.008 10.6113C19.772 9.34535 18.1031 8.59353 16.336 8.50666C14.5688 8.41979 12.8342 9.00431 11.48 10.143C10.1258 11.2816 9.25227 12.8902 9.03455 14.646C8.92107 15.7701 9.09222 16.9048 9.53224 17.9454C9.97227 18.986 10.667 19.8993 11.5525 20.601C11.8532 20.8494 12.0944 21.1621 12.2584 21.5159C12.4224 21.8698 12.505 22.256 12.5 22.646V24H19.5V22.646ZM18.1745 18.831C18.1115 18.7701 18.0305 18.731 17.9436 18.7195C17.8566 18.7079 17.7683 18.7246 17.6915 18.767C17.5061 18.8634 17.3127 18.9437 17.1135 19.007C17.0296 19.0315 16.9556 19.0823 16.9026 19.1518C16.8495 19.2213 16.8201 19.306 16.8185 19.3935V20H15.182V19.3935C15.1805 19.306 15.151 19.2212 15.0978 19.1517C15.0446 19.0821 14.9706 19.0314 14.8865 19.007C14.6874 18.9437 14.494 18.8634 14.3085 18.767C14.2317 18.7247 14.1434 18.7081 14.0564 18.7197C13.9695 18.7313 13.8886 18.7705 13.8255 18.8315L13.3965 19.2605L12.2395 18.1035L12.6685 17.674C12.7294 17.611 12.7685 17.5302 12.7802 17.4434C12.7918 17.3565 12.7753 17.2683 12.733 17.1915C12.6367 17.0061 12.5564 16.8127 12.493 16.6135C12.4685 16.5295 12.4178 16.4556 12.3482 16.4025C12.2787 16.3494 12.194 16.32 12.1065 16.3185H11.5V14.682H12.1065C12.1941 14.6805 12.2788 14.6509 12.3484 14.5978C12.4179 14.5446 12.4686 14.4706 12.493 14.3865C12.5564 14.1873 12.6367 13.9939 12.733 13.8085C12.7754 13.7317 12.7919 13.6433 12.7803 13.5564C12.7687 13.4694 12.7295 13.3885 12.6685 13.3255L12.2395 12.8965L13.3965 11.7395L13.826 12.1685C13.889 12.2294 13.9699 12.2685 14.0567 12.2801C14.1435 12.2917 14.2318 12.2752 14.3085 12.233C14.494 12.1366 14.6874 12.0563 14.8865 11.993C14.9705 11.9685 15.0444 11.9177 15.0975 11.8482C15.1506 11.7787 15.18 11.694 15.1815 11.6065V11H16.818V11.6065C16.8196 11.694 16.8491 11.7788 16.9023 11.8483C16.9554 11.9179 17.0295 11.9686 17.1135 11.993C17.3127 12.0563 17.5061 12.1366 17.6915 12.233C17.7684 12.2753 17.8567 12.2919 17.9437 12.2803C18.0306 12.2687 18.1115 12.2295 18.1745 12.1685L18.6035 11.7395L18.682 11.818L19.7605 12.8965L19.3315 13.326C19.2707 13.389 19.2315 13.4698 19.2199 13.5566C19.2083 13.6435 19.2248 13.7317 19.267 13.8085C19.3634 13.9939 19.4437 14.1873 19.507 14.3865C19.5316 14.4705 19.5823 14.5444 19.6518 14.5975C19.7214 14.6505 19.8061 14.68 19.8935 14.6815H20.5V16.318H19.8935C19.806 16.3195 19.7213 16.349 19.6517 16.4022C19.5822 16.4554 19.5315 16.5294 19.507 16.6135C19.4437 16.8127 19.3634 17.0061 19.267 17.1915C19.2247 17.2683 19.2081 17.3567 19.2198 17.4436C19.2314 17.5306 19.2705 17.6115 19.3315 17.6745L19.7605 18.1035L18.6035 19.2605L18.1745 18.831ZM12.5 25.6435C12.5124 26.4131 12.8298 27.1462 13.3825 27.6819C13.9352 28.2175 14.678 28.5118 15.4475 28.5H16.5525C17.3222 28.5118 18.065 28.2174 18.6177 27.6817C19.1705 27.1459 19.4878 26.4126 19.5 25.643V25H12.5V25.6435Z" fill="#064EBA"/>
</svg>
