<svg width="32" height="32" viewBox="0 0 32 32" fill="none" xmlns="http://www.w3.org/2000/svg">
	<g clip-path="url(#clip0_1370_5144)">
		<path d="M29 2.5H3C2.20435 2.5 1.44129 2.81607 0.87868 3.37868C0.31607 3.94129 0 4.70435 0 5.5L0 26.5C0 27.2956 0.31607 28.0587 0.87868 28.6213C1.44129 29.1839 2.20435 29.5 3 29.5H29C29.7956 29.5 30.5587 29.1839 31.1213 28.6213C31.6839 28.0587 32 27.2956 32 26.5V5.5C32 4.70435 31.6839 3.94129 31.1213 3.37868C30.5587 2.81607 29.7956 2.5 29 2.5ZM27 5.5H29V7.5H27V5.5ZM24 5.5H26V7.5H24V5.5ZM21 5.5H23V7.5H21V5.5ZM30 26.5C30 26.7652 29.8946 27.0196 29.7071 27.2071C29.5196 27.3946 29.2652 27.5 29 27.5H3C2.73478 27.5 2.48043 27.3946 2.29289 27.2071C2.10536 27.0196 2 26.7652 2 26.5V10.5H30V26.5Z" fill="#8116B4"/>
		<path d="M11.3702 12.735L5.77023 18.335C5.59157 18.5257 5.49466 18.7788 5.50023 19.04C5.49947 19.1716 5.52469 19.3021 5.57446 19.4239C5.62422 19.5457 5.69755 19.6566 5.79023 19.75L11.3902 25.345L12.8052 23.935L7.91023 19.04L12.8052 14.15L11.3702 12.735ZM20.6302 12.735L19.2152 14.15L24.1102 19.04L19.2152 23.935L20.6302 25.345L26.2302 19.75C26.4101 19.5581 26.5071 19.303 26.5002 19.04C26.5004 18.7759 26.3962 18.5225 26.2102 18.335L20.6302 12.735Z" fill="#D06BFF"/>
		<path d="M16.2686 12.8035L13.7681 25.3059L15.7292 25.6981L18.2297 13.1957L16.2686 12.8035Z" fill="#D06BFF"/>
	</g>
	<defs>
		<clipPath id="clip0_1370_5144">
			<rect width="32" height="32" fill="white"/>
		</clipPath>
	</defs>
</svg>
