<svg width="121" height="48" viewBox="0 0 121 48" fill="none" xmlns="http://www.w3.org/2000/svg">
<path d="M37.9253 32.4263L39.3934 28.9949C41.0009 30.1853 43.0975 30.8154 45.1947 30.8154C46.7325 30.8154 47.7109 30.2204 47.7109 29.3101C47.6758 26.7889 38.4496 28.7498 38.3794 22.4112C38.3443 19.1897 41.2104 16.7036 45.2649 16.7036C47.6758 16.7036 50.0878 17.2991 51.8 18.6649L50.4281 22.1696C48.8527 21.1566 46.9069 20.4503 45.0549 20.4503C43.7968 20.4503 42.9577 21.0453 42.9577 21.8162C42.9928 24.3023 52.2897 22.9364 52.3945 28.9949C52.3945 32.2865 49.5981 34.5977 45.6137 34.5977C42.6785 34.5977 39.9874 33.8975 37.9248 32.4263H37.9253ZM96.3833 27.7523C96.0128 28.4108 95.4737 28.9588 94.8215 29.3402C94.1692 29.7216 93.4273 29.9226 92.6717 29.9227C90.3169 29.9227 88.4082 28.0099 88.4082 25.6506C88.4082 23.2913 90.3169 21.3786 92.6717 21.3786C93.4273 21.3787 94.1692 21.5797 94.8215 21.9611C95.4737 22.3425 96.0128 22.8905 96.3833 23.549L100.465 21.2834C98.9361 18.5511 96.0199 16.7036 92.6717 16.7036C87.74 16.7036 83.7422 20.709 83.7422 25.6506C83.7422 30.5918 87.74 34.5977 92.6717 34.5977C96.0199 34.5977 98.9361 32.7501 100.465 30.0179L96.3833 27.7523ZM55.043 34.2473H60.1456V9.25574H55.0435L55.043 34.2473ZM103.042 9.25574V34.2473H108.144V26.7599L114.191 34.2473H120.713L113.024 25.3524L120.153 17.0524H113.911L108.144 23.953V9.25574H103.042ZM75.8658 17.0535V19.085C75.0272 17.684 72.9651 16.7036 70.7983 16.7036C66.3248 16.7036 62.7951 20.6608 62.7951 25.6331C62.7951 30.6053 66.3248 34.5977 70.7983 34.5977C72.9651 34.5977 75.0272 33.6173 75.8658 32.2163V34.2473H80.9684V17.0535H75.8658ZM75.8658 27.7869C75.132 29.0124 73.5942 29.9222 71.882 29.9222C69.5267 29.9222 67.618 28.0099 67.618 25.6506C67.618 23.2913 69.5267 21.3786 71.882 21.3786C73.5942 21.3786 75.132 22.3239 75.8658 23.584V27.7869Z" fill="black"/>
<path d="M10.978 8.70361C9.32448 8.70361 7.98417 10.0469 7.98417 11.7035C7.98378 12.0971 8.0609 12.4868 8.21115 12.8506C8.36139 13.2143 8.58181 13.5449 8.85981 13.8235C9.13782 14.1021 9.46797 14.3231 9.83142 14.4741C10.1949 14.6251 10.5845 14.703 10.978 14.7034H13.9724V11.7035C13.9731 10.9086 13.658 10.1461 13.0965 9.58348C12.5349 9.0209 11.7729 8.70441 10.978 8.70361ZM10.978 16.7033H2.99388C1.3403 16.7033 0 18.0466 0 19.7037C0 21.3603 1.3403 22.7036 2.99388 22.7036H10.9785C12.6316 22.7036 13.9724 21.3603 13.9724 19.7037C13.9724 18.0466 12.6316 16.7033 10.978 16.7033Z" fill="#36C5F0"/>
<path d="M29.9412 19.7037C29.9412 18.0466 28.6004 16.7033 26.9468 16.7033C25.2932 16.7033 23.9529 18.0466 23.9529 19.7037V22.7036H26.9468C27.7417 22.7028 28.5037 22.3863 29.0652 21.8237C29.6268 21.2612 29.9418 20.4986 29.9412 19.7037ZM21.957 19.7037V11.7035C21.9577 10.9086 21.6426 10.1461 21.081 9.58348C20.5195 9.0209 19.7575 8.70441 18.9626 8.70361C17.3091 8.70361 15.9688 10.0469 15.9688 11.7035V19.7032C15.9688 21.3608 17.3091 22.7041 18.9626 22.7041C19.7575 22.7033 20.5195 22.3868 21.081 21.8242C21.6426 21.2617 21.9577 20.4991 21.957 19.7042" fill="#2EB67D"/>
<path d="M18.9626 38.7036C19.7575 38.7028 20.5195 38.3863 21.081 37.8237C21.6426 37.2612 21.9577 36.4986 21.957 35.7037C21.9577 34.9088 21.6426 34.1463 21.081 33.5837C20.5195 33.0211 19.7575 32.7046 18.9626 32.7038H15.9688V35.7037C15.9688 37.3603 17.3091 38.7036 18.9626 38.7036ZM18.9626 30.7039H26.9473C28.6004 30.7039 29.9412 29.3606 29.9412 27.7035C29.9418 26.9086 29.6268 26.1461 29.0652 25.5835C28.5037 25.0209 27.7417 24.7044 26.9468 24.7036H18.9626C17.3091 24.7036 15.9688 26.0469 15.9688 27.7035C15.9684 28.0971 16.0455 28.4868 16.1957 28.8506C16.346 29.2143 16.5664 29.5449 16.8444 29.8235C17.1224 30.1021 17.4526 30.3231 17.816 30.4741C18.1794 30.6251 18.5691 30.703 18.9626 30.7034" fill="#ECB22E"/>
<path d="M1.51064e-06 27.7035C-0.000393626 28.0971 0.0767319 28.4868 0.226974 28.8506C0.377217 29.2143 0.597634 29.5449 0.875642 29.8235C1.15365 30.1021 1.4838 30.3231 1.84725 30.4741C2.2107 30.6251 2.60032 30.703 2.99388 30.7034C3.78875 30.7026 4.55075 30.3861 5.11229 29.8235C5.67383 29.261 5.98892 28.4984 5.98826 27.7035V24.7036H2.99388C1.3403 24.7036 1.51064e-06 26.0469 1.51064e-06 27.7035ZM7.98417 27.7035V35.7032C7.98417 37.3603 9.32448 38.7036 10.9781 38.7036C11.7729 38.7028 12.5349 38.3863 13.0965 37.8237C13.658 37.2612 13.9731 36.4986 13.9724 35.7037V27.7035C13.9728 27.3099 13.8957 26.9201 13.7454 26.5563C13.5951 26.1925 13.3747 25.8619 13.0966 25.5833C12.8186 25.3048 12.4883 25.0837 12.1248 24.9327C11.7613 24.7818 11.3716 24.7039 10.9781 24.7036C9.32448 24.7036 7.98417 26.0469 7.98417 27.7035Z" fill="#E01E5A"/>
</svg>
